<mxfile host="65bd71144e">
    <diagram id="CJmTncszB81aBJOBwrCM" name="Page-1">
        <mxGraphModel dx="2119" dy="1042" grid="1" gridSize="10" guides="1" tooltips="1" connect="1" arrows="1" fold="1" page="1" pageScale="1" pageWidth="827" pageHeight="1169" math="0" shadow="0">
            <root>
                <mxCell id="0"/>
                <mxCell id="1" parent="0"/>
                <mxCell id="52" value="Text" style="text;html=1;align=center;verticalAlign=middle;resizable=0;points=[];autosize=1;strokeColor=none;fillColor=none;" vertex="1" parent="1">
                    <mxGeometry x="840" y="410" width="40" height="20" as="geometry"/>
                </mxCell>
                <mxCell id="73" value="Segment tree" style="swimlane;startSize=20;horizontal=1;childLayout=treeLayout;horizontalTree=0;resizable=0;containerType=tree;" vertex="1" parent="1">
                    <mxGeometry x="-280" y="180" width="1120" height="370" as="geometry"/>
                </mxCell>
                <mxCell id="74" value="Root" style="whiteSpace=wrap;html=1;" vertex="1" parent="73">
                    <mxGeometry x="510" y="40" width="100" height="40" as="geometry"/>
                </mxCell>
                <mxCell id="75" value="Child 1" style="whiteSpace=wrap;html=1;" vertex="1" parent="73">
                    <mxGeometry x="230" y="130" width="100" height="40" as="geometry"/>
                </mxCell>
                <mxCell id="76" value="" style="edgeStyle=elbowEdgeStyle;elbow=vertical;html=1;rounded=0;" edge="1" parent="73" source="74" target="75">
                    <mxGeometry relative="1" as="geometry"/>
                </mxCell>
                <mxCell id="77" value="Child 2" style="whiteSpace=wrap;html=1;" vertex="1" parent="73">
                    <mxGeometry x="790" y="130" width="100" height="40" as="geometry"/>
                </mxCell>
                <mxCell id="78" value="" style="edgeStyle=elbowEdgeStyle;elbow=vertical;html=1;rounded=0;" edge="1" parent="73" source="74" target="77">
                    <mxGeometry relative="1" as="geometry"/>
                </mxCell>
                <mxCell id="85" value="" style="edgeStyle=elbowEdgeStyle;elbow=vertical;html=1;rounded=0;" edge="1" target="86" source="77" parent="73">
                    <mxGeometry relative="1" as="geometry">
                        <mxPoint x="-795" y="440" as="sourcePoint"/>
                    </mxGeometry>
                </mxCell>
                <mxCell id="86" value="Child 2" style="whiteSpace=wrap;html=1;" vertex="1" parent="73">
                    <mxGeometry x="650" y="220" width="100" height="40" as="geometry"/>
                </mxCell>
                <mxCell id="87" value="" style="edgeStyle=elbowEdgeStyle;elbow=vertical;html=1;rounded=0;" edge="1" target="88" source="75" parent="73">
                    <mxGeometry relative="1" as="geometry">
                        <mxPoint x="-795" y="440" as="sourcePoint"/>
                    </mxGeometry>
                </mxCell>
                <mxCell id="88" value="Child 1" style="whiteSpace=wrap;html=1;" vertex="1" parent="73">
                    <mxGeometry x="90" y="220" width="100" height="40" as="geometry"/>
                </mxCell>
                <mxCell id="89" value="" style="edgeStyle=elbowEdgeStyle;elbow=vertical;html=1;rounded=0;" edge="1" target="90" source="75" parent="73">
                    <mxGeometry relative="1" as="geometry">
                        <mxPoint x="-865" y="530" as="sourcePoint"/>
                    </mxGeometry>
                </mxCell>
                <mxCell id="90" value="Child 1" style="whiteSpace=wrap;html=1;" vertex="1" parent="73">
                    <mxGeometry x="370" y="220" width="100" height="40" as="geometry"/>
                </mxCell>
                <mxCell id="91" value="" style="edgeStyle=elbowEdgeStyle;elbow=vertical;html=1;rounded=0;" edge="1" target="92" source="77" parent="73">
                    <mxGeometry relative="1" as="geometry">
                        <mxPoint x="-515" y="530" as="sourcePoint"/>
                    </mxGeometry>
                </mxCell>
                <mxCell id="92" value="Child 2" style="whiteSpace=wrap;html=1;" vertex="1" parent="73">
                    <mxGeometry x="930" y="220" width="100" height="40" as="geometry"/>
                </mxCell>
                <mxCell id="93" value="" style="edgeStyle=elbowEdgeStyle;elbow=vertical;html=1;rounded=0;" edge="1" target="94" source="86" parent="73">
                    <mxGeometry relative="1" as="geometry">
                        <mxPoint x="-270" y="530" as="sourcePoint"/>
                    </mxGeometry>
                </mxCell>
                <mxCell id="94" value="2" style="whiteSpace=wrap;html=1;" vertex="1" parent="73">
                    <mxGeometry x="580" y="310" width="100" height="40" as="geometry"/>
                </mxCell>
                <mxCell id="95" value="" style="edgeStyle=elbowEdgeStyle;elbow=vertical;html=1;rounded=0;" edge="1" target="96" source="92" parent="73">
                    <mxGeometry relative="1" as="geometry">
                        <mxPoint x="-270" y="530" as="sourcePoint"/>
                    </mxGeometry>
                </mxCell>
                <mxCell id="96" value="0" style="whiteSpace=wrap;html=1;" vertex="1" parent="73">
                    <mxGeometry x="860" y="310" width="100" height="40" as="geometry"/>
                </mxCell>
                <mxCell id="97" value="" style="edgeStyle=elbowEdgeStyle;elbow=vertical;html=1;rounded=0;" edge="1" target="98" source="92" parent="73">
                    <mxGeometry relative="1" as="geometry">
                        <mxPoint x="-200" y="620" as="sourcePoint"/>
                    </mxGeometry>
                </mxCell>
                <mxCell id="98" value="0" style="whiteSpace=wrap;html=1;" vertex="1" parent="73">
                    <mxGeometry x="1000" y="310" width="100" height="40" as="geometry"/>
                </mxCell>
                <mxCell id="99" value="" style="edgeStyle=elbowEdgeStyle;elbow=vertical;html=1;rounded=0;" edge="1" target="100" source="86" parent="73">
                    <mxGeometry relative="1" as="geometry">
                        <mxPoint x="-357.5" y="620" as="sourcePoint"/>
                    </mxGeometry>
                </mxCell>
                <mxCell id="100" value="0" style="whiteSpace=wrap;html=1;" vertex="1" parent="73">
                    <mxGeometry x="720" y="310" width="100" height="40" as="geometry"/>
                </mxCell>
                <mxCell id="101" value="" style="edgeStyle=elbowEdgeStyle;elbow=vertical;html=1;rounded=0;" edge="1" target="102" source="90" parent="73">
                    <mxGeometry relative="1" as="geometry">
                        <mxPoint x="-530" y="385" as="sourcePoint"/>
                    </mxGeometry>
                </mxCell>
                <mxCell id="102" value="1" style="whiteSpace=wrap;html=1;" vertex="1" parent="73">
                    <mxGeometry x="300" y="310" width="100" height="40" as="geometry"/>
                </mxCell>
                <mxCell id="103" value="" style="edgeStyle=elbowEdgeStyle;elbow=vertical;html=1;rounded=0;" edge="1" target="104" source="90" parent="73">
                    <mxGeometry relative="1" as="geometry">
                        <mxPoint x="-467" y="475" as="sourcePoint"/>
                    </mxGeometry>
                </mxCell>
                <mxCell id="104" value="4" style="whiteSpace=wrap;html=1;" vertex="1" parent="73">
                    <mxGeometry x="440" y="310" width="100" height="40" as="geometry"/>
                </mxCell>
                <mxCell id="105" value="" style="edgeStyle=elbowEdgeStyle;elbow=vertical;html=1;rounded=0;" edge="1" target="106" source="88" parent="73">
                    <mxGeometry relative="1" as="geometry">
                        <mxPoint x="-229" y="385" as="sourcePoint"/>
                    </mxGeometry>
                </mxCell>
                <mxCell id="106" value="2" style="whiteSpace=wrap;html=1;" vertex="1" parent="73">
                    <mxGeometry x="20" y="310" width="100" height="40" as="geometry"/>
                </mxCell>
                <mxCell id="107" value="" style="edgeStyle=elbowEdgeStyle;elbow=vertical;html=1;rounded=0;" edge="1" target="108" source="88" parent="73">
                    <mxGeometry relative="1" as="geometry">
                        <mxPoint x="-337.5" y="475" as="sourcePoint"/>
                    </mxGeometry>
                </mxCell>
                <mxCell id="108" value="6" style="whiteSpace=wrap;html=1;" vertex="1" parent="73">
                    <mxGeometry x="160" y="310" width="100" height="40" as="geometry"/>
                </mxCell>
            </root>
        </mxGraphModel>
    </diagram>
</mxfile>